<?xml version="1.0" encoding="utf-8"?>
<!-- Generator: Adobe Illustrator 16.0.0, SVG Export Plug-In . SVG Version: 6.00 Build 0)  -->
<!DOCTYPE svg PUBLIC "-//W3C//DTD SVG 1.1//EN" "http://www.w3.org/Graphics/SVG/1.1/DTD/svg11.dtd">
<svg version="1.1" id="Capa_1" xmlns="http://www.w3.org/2000/svg" xmlns:xlink="http://www.w3.org/1999/xlink" x="0px" y="0px"
	 width="250px" height="250px" viewBox="131 131 250 250" enable-background="new 131 131 250 250" xml:space="preserve">
<path fill="#FFD0A6" d="M204.499,228.695h-1.495c-9.436,0-17.088-8.141-17.088-18.184v-48.099c0-10.481,7.986-18.978,17.835-18.978
	c9.852,0,17.837,8.497,17.837,18.978v48.099C221.589,220.554,213.938,228.695,204.499,228.695z"/>
<path fill="#FFD0A6" d="M206.426,361.822v-21.155c0-18.902-5.84-37.279-16.621-52.303l-10.441-14.552
	c-8.015-11.17-12.355-24.833-12.355-38.885c0-8.497,0.754-16.977,2.25-25.323c0.429-2.393,0.858-4.785,1.286-7.178
	c1.596-8.899,9.363-15.012,17.822-13.976v-26.674l131.375,10.217l8.866,20.552v49.184c0,29.114-10.789,57.054-30.027,77.76
	c-2.881,3.1-4.495,7.282-4.495,11.64v30.692"/>
<g>
	<path fill="#E8B182" d="M194.646,210.511v-48.099c0-8.878,5.731-16.331,13.471-18.402c-1.397-0.375-2.86-0.575-4.366-0.575
		c-9.849,0-17.835,8.496-17.835,18.977v48.099c0,10.042,7.65,18.184,17.088,18.184h1.495c1.242,0,2.453-0.145,3.618-0.412
		C200.417,226.516,194.646,219.233,194.646,210.511z"/>
	<path fill="#E8B182" d="M257.262,169.019v48.101c0,9.59-6.979,17.443-15.827,18.135c-4.915-4.243-10.812-7.243-17.276-8.549
		c-1.633-2.782-2.572-6.067-2.572-9.586v-48.101c0-10.478,7.988-18.977,17.842-18.977c4.922,0,9.383,2.122,12.609,5.559
		C255.263,159.038,257.262,163.78,257.262,169.019z"/>
	<path fill="#E8B182" d="M275.847,235.301h-1.496c-9.437,0-17.089-8.14-17.089-18.182v-48.099c0-10.481,7.985-18.978,17.836-18.978
		c9.852,0,17.838,8.497,17.838,18.978v48.099C292.936,227.162,285.283,235.301,275.847,235.301z"/>
	<path fill="#E8B182" d="M311.518,229.836h-1.492c-9.439,0-17.09-8.142-17.09-18.184v-31.613c0-10.479,7.984-18.977,17.837-18.977
		c9.849,0,17.836,8.497,17.836,18.977v31.613C328.608,221.694,320.956,229.836,311.518,229.836z"/>
</g>
<path fill="#FFD0A6" d="M257.261,153.229v48.099c0,10.041-7.649,18.183-17.09,18.183h-1.492c-9.438,0-17.09-8.142-17.09-18.183
	v-48.099c0-10.479,7.984-18.978,17.836-18.978c4.927,0,9.384,2.122,12.609,5.56C255.264,143.247,257.261,147.988,257.261,153.229z"
	/>
<path fill="#E8B182" d="M230.319,201.328V153.23c0-8.879,5.731-16.332,13.471-18.404c-1.397-0.373-2.857-0.573-4.364-0.573
	c-9.851,0-17.836,8.496-17.836,18.978v48.098c0,10.042,7.652,18.184,17.09,18.184h1.493c1.242,0,2.453-0.144,3.618-0.413
	C236.091,217.333,230.319,210.05,230.319,201.328z"/>
<path fill="#FFD0A6" d="M275.847,219.511h-1.496c-9.437,0-17.089-8.14-17.089-18.183V153.23c0-10.482,7.985-18.979,17.836-18.979
	c9.852,0,17.838,8.497,17.838,18.979v48.098C292.936,211.371,285.283,219.511,275.847,219.511z"/>
<path fill="#E8B182" d="M265.992,201.328V153.23c0-8.879,5.732-16.332,13.472-18.404c-1.397-0.373-2.858-0.573-4.364-0.573
	c-9.853,0-17.838,8.496-17.838,18.978v48.098c0,10.042,7.652,18.184,17.089,18.184h1.496c1.242,0,2.449-0.144,3.617-0.413
	C271.765,217.333,265.992,210.05,265.992,201.328z"/>
<path fill="#FFD0A6" d="M311.518,214.045h-1.492c-9.439,0-17.09-8.142-17.09-18.184V164.25c0-10.482,7.984-18.979,17.837-18.979
	c9.849,0,17.836,8.497,17.836,18.979v31.611C328.608,205.903,320.956,214.045,311.518,214.045z"/>
<path fill="#E8B182" d="M301.665,195.861V164.25c0-8.879,5.731-16.331,13.472-18.404c-1.397-0.373-2.859-0.575-4.364-0.575
	c-9.853,0-17.837,8.497-17.837,18.979v31.611c0,10.042,7.65,18.184,17.09,18.184h1.492c1.244,0,2.453-0.145,3.619-0.413
	C307.437,211.865,301.665,204.583,301.665,195.861z"/>
<path fill="#E8B182" d="M257.261,193.949v7.379c0,10.041-7.649,18.183-17.09,18.183h-1.492c-9.438,0-17.09-8.142-17.09-18.183
	v-11.462c7.224-0.045,14.44-0.496,21.628-1.359C248.622,187.86,253.75,190.024,257.261,193.949z"/>
<path fill="#FFD0A6" d="M206.426,361.822v-21.155c0-18.902-5.84-37.279-16.621-52.303l-10.441-14.552
	c-8.015-11.17-12.355-24.833-12.355-38.885c0-8.497,0.754-16.977,2.25-25.323c0.429-2.393,0.858-4.785,1.286-7.178
	c1.596-8.899,9.363-15.012,17.822-13.976c15.321,1.875,30.794,1.894,46.118,0.055c8.722-1.047,16.728,5.233,18.372,14.407
	l0.064,0.354c1.836,10.237-4.917,19.948-14.65,21.116c-9.14,1.096-18.324,1.625-27.507,1.589"/>
<path fill="#E8B182" d="M208.576,288.362c10.781,15.023,16.623,33.401,16.623,52.303v21.154h-18.77v-21.154
	c0-18.901-5.84-37.279-16.622-52.303l-10.44-14.552c-8.014-11.17-12.358-24.833-12.358-38.88c0-4.25,0.188-8.496,0.563-12.722
	c0.375-4.226,0.943-8.434,1.689-12.604c0.427-2.392,0.856-4.784,1.288-7.179c1.594-8.898,9.363-15.012,17.818-13.976
	c3.697,0.45,7.408,0.8,11.12,1.032c-5.108,2.085-9.08,6.863-10.167,12.944c-0.432,2.395-0.859,4.788-1.289,7.179
	c-1.496,8.345-2.252,16.827-2.252,25.327c0,7.026,1.087,13.95,3.174,20.521c2.087,6.569,5.176,12.772,9.184,18.359L208.576,288.362z
	"/>
<path fill="#E8B182" d="M255.935,271.085c-1.808,0-3.273-1.56-3.273-3.483c0-11.558-4.843-22.362-13.288-29.641
	c-4.587-3.962-10.059-6.668-15.825-7.833c-2.2-0.447-4.468-0.674-6.742-0.674h-6.045c-1.809,0-3.274-1.559-3.274-3.482
	c0-1.925,1.465-3.484,3.274-3.484h6.045c2.685,0,5.364,0.268,7.965,0.795c6.824,1.378,13.301,4.583,18.725,9.268
	c9.985,8.605,15.711,21.381,15.711,35.051C259.209,269.525,257.744,271.085,255.935,271.085z"/>
<g>
	<path fill="#30CEB3" d="M301.89,338.378V381H199.848v-49.546"/>
	<path fill="#1FB598" d="M232.502,328.448V381h-32.654v-61.087"/>
</g>
</svg>
