<?xml version="1.0" encoding="utf-8"?>
<!-- Generator: Adobe Illustrator 16.0.0, SVG Export Plug-In . SVG Version: 6.00 Build 0)  -->
<!DOCTYPE svg PUBLIC "-//W3C//DTD SVG 1.1//EN" "http://www.w3.org/Graphics/SVG/1.1/DTD/svg11.dtd">
<svg version="1.1" id="Capa_1" xmlns="http://www.w3.org/2000/svg" xmlns:xlink="http://www.w3.org/1999/xlink" x="0px" y="0px"
	 width="250px" height="250px" viewBox="0 0 250 250" enable-background="new 0 0 250 250" xml:space="preserve">
<g>
	<path fill="#FFD4A9" d="M83.617,222.697v-21.156c0-18.9-5.84-37.277-16.621-52.303L68.5,140c-8.014-11.17,11,2.052,11-12
		c0-8.497-12.495-16.653-11-25c12.05,22.521,56,41,31,13c1.596-8.898-11.459-27.036-3-26l15,16l48,20l18-1l9-15
		c0,29.113,22,40-10,55c14,1-5.223,22.646-5.223,27.004v30.691"/>
	<g>
		<path fill="#FFD4A9" d="M65.054,83.992c7.368-4.087,16.652-1.432,20.733,5.94c2.448,4.405,4.355,9.002,5.724,13.727V31.99
			c0-3.689,1.492-7.028,3.911-9.447s6.012-2.567,9.448-3.911c17.021-6.658,13.775,46.072,13.775,55.894l9.579-59.358
			c0-3.691,1.499-7.029,3.914-9.448c2.418-2.42,5.762-3.911,9.446-3.911c7.382,0,13.366,5.978,13.366,13.358l-10,72.831
			c0-3.689,1.491-7.028,3.911-9.447c2.419-2.42,5.757-3.911,9.447-3.911c7.376,0,13.358,5.978,13.358,13.358v18.054
			c0-3.684,1.495-7.028,3.912-9.447c2.418-2.414,5.759-3.912,9.448-3.912c7.377,0,13.358,5.982,13.358,13.358v11.805
			c0,28.729-18.429,71.116-51.052,71.116c0,0-23.267,0-39.794,0c-44.204,0-44.494-61.201-44.494-61.201
			c0-0.093-0.008-15.973-3.931-23.046C55.027,97.364,57.684,88.081,65.054,83.992z"/>
		<g>
			<path fill="#EDC098" d="M189.302,126.858v-19.805c0-5.778-3.68-10.708-8.818-12.564c1.42-0.517,2.946-0.794,4.543-0.794
				c7.377,0,13.358,5.982,13.358,13.358v19.805c0,28.729-18.429,62.118-51.052,62.118c0,0-3.651,0-9.084,0
				C170.87,188.977,189.302,155.588,189.302,126.858z"/>
			<path fill="#EDC098" d="M168.255,114.68c-2.508,0-4.541-2.033-4.541-4.54V87.659c0-5.779-3.68-10.708-8.816-12.565
				c1.519-0.552,3.163-0.832,4.882-0.79c7.297,0.181,13.019,6.368,13.019,13.667v22.169
				C172.798,112.646,170.766,114.68,168.255,114.68z"/>
			<path fill="#EDC098" d="M138.425,98.697c-2.485-0.358-4.206-2.66-3.849-5.142l11.126-77.231
				c0.824-5.72-2.115-11.123-6.937-13.695c1.584-0.33,3.251-0.372,4.946-0.083c7.196,1.218,11.977,8.157,10.937,15.381
				l-11.082,76.924C143.209,97.333,140.906,99.056,138.425,98.697z"/>
			<path fill="#EDC098" d="M115.945,102.156c-2.51,0-4.543-2.034-4.543-4.543V32.058c0-5.779-3.678-10.709-8.816-12.565
				c1.52-0.552,3.164-0.832,4.884-0.791c7.295,0.181,13.017,6.369,13.017,13.667v65.245
				C120.484,100.121,118.452,102.156,115.945,102.156z"/>
			<path fill="#EDC098" d="M65.055,83.994c7.368-4.087,16.652-1.431,20.732,5.94c5.627,10.133,8.418,21.312,8.285,32.597
				c18.064,0,32.945,13.608,34.954,31.135c0.245,2.156-1.433,4.05-3.603,4.05c-1.757,0-3.247-1.266-3.563-2.994
				c-3.006-16.375-17.352-28.781-34.601-28.781c0.135-11.287-2.657-22.466-8.284-32.6c-3.333-6.019-10.136-8.891-16.534-7.519
				C63.231,85.133,64.105,84.521,65.055,83.994z"/>
		</g>
	</g>
	<g>
		<path fill="#30CEB3" d="M179.082,205.877V248.5H77.039v-49.547"/>
		<path fill="#1FB598" d="M109.693,195.947V248.5H77.039v-61.088"/>
	</g>
</g>
</svg>
